<?xml version="1.0" encoding="utf-8"?>
<!-- Generator: Adobe Illustrator 23.0.0, SVG Export Plug-In . SVG Version: 6.00 Build 0)  -->
<svg version="1.1" id="Camada_1" xmlns="http://www.w3.org/2000/svg" xmlns:xlink="http://www.w3.org/1999/xlink" x="0px" y="0px"
	 viewBox="0 0 180 55" style="enable-background:new 0 0 180 55;" xml:space="preserve">
<style type="text/css">
	.st0{fill:#C9971A;}
	.st1{fill:#326B6C;}
</style>
<g>
	<g>
		<g>
			<g>
				<path class="st0" d="M40.71,27.75c-0.01,2.03-0.71,4.09-2.13,5.64c-1.4,1.56-3.52,2.46-5.63,2.42
					c-2.12-0.04-4.12-1.02-5.56-2.49c-1.43-1.48-2.31-3.48-2.37-5.56c-0.08-2.08,0.73-4.21,2.22-5.72c1.47-1.53,3.58-2.44,5.72-2.41
					c2.13-0.01,4.24,0.92,5.64,2.48C39.99,23.66,40.74,25.72,40.71,27.75z M40.64,27.75c-0.01-2.02-0.93-3.99-2.4-5.3
					c-1.46-1.32-3.36-2.06-5.29-2.06c-1.92,0.02-3.83,0.78-5.22,2.13c-1.39,1.35-2.24,3.25-2.3,5.22c-0.07,1.97,0.7,4,2.15,5.38
					c1.42,1.42,3.44,2.11,5.37,2.05c1.95-0.03,3.84-0.8,5.3-2.13C39.7,31.74,40.66,29.78,40.64,27.75z"/>
			</g>
		</g>
		<g>
			<g>
				<path class="st0" d="M36.74,26.39c-0.01,1.25-0.4,2.55-1.27,3.55c-0.85,1.01-2.21,1.6-3.54,1.55c-1.34-0.05-2.59-0.7-3.46-1.63
					c-0.89-0.92-1.45-2.16-1.51-3.47c-0.08-1.3,0.41-2.66,1.35-3.63c0.92-0.97,2.27-1.57,3.63-1.55c1.35,0.01,2.7,0.61,3.55,1.63
					C36.34,23.84,36.74,25.13,36.74,26.39z M36.66,26.39c0.01-1.25-0.62-2.44-1.53-3.21c-0.92-0.76-2.05-1.19-3.2-1.18
					c-1.14,0.01-2.29,0.44-3.13,1.25c-0.84,0.8-1.37,1.93-1.44,3.13c-0.07,1.2,0.39,2.45,1.28,3.29c0.88,0.85,2.13,1.24,3.29,1.18
					c1.17-0.05,2.3-0.49,3.21-1.26C36.04,28.83,36.68,27.64,36.66,26.39z"/>
			</g>
		</g>
		<polygon class="st0" points="23.64,27.81 13.42,29.14 23.76,29.62 		"/>
		<polygon class="st0" points="41.66,27.81 51.87,29.14 41.54,29.62 		"/>
		<polygon class="st0" points="33.55,18.6 32.23,8.36 31.75,18.72 		"/>
		<polygon class="st0" points="29.28,18.84 27.25,13.71 28.36,19.14 		"/>
		<polygon class="st0" points="37.71,19.62 39.99,14.58 36.85,19.16 		"/>
		<polygon class="st0" points="41.9,25.92 47.18,24.34 41.68,24.97 		"/>
		<polygon class="st0" points="41.16,32.57 46.31,34.56 41.57,31.69 		"/>
		<polygon class="st0" points="35.97,36.8 38.37,41.78 36.86,36.44 		"/>
		<polygon class="st0" points="23.68,24.58 18.17,24.45 23.6,25.55 		"/>
		<polygon class="st0" points="23.75,32.11 18.93,34.79 24.17,32.98 		"/>
		<polygon class="st0" points="29.01,36.53 26.79,41.59 29.87,36.97 		"/>
		<polygon class="st0" points="33.55,36.66 32.23,46.9 31.75,36.54 		"/>
		<polygon class="st0" points="40.99,23.12 47.88,15.45 39.72,21.82 		"/>
		<polygon class="st0" points="27.3,34.87 18.68,40.52 26.22,33.42 		"/>
		<polygon class="st0" points="38.77,35.32 47.16,41.31 39.91,33.91 		"/>
		<polygon class="st0" points="25.03,22.6 18.45,14.66 26.35,21.36 		"/>
	</g>
	<g>
		<g>
			<path class="st1" d="M111.87,36.05l-0.64,1.24l-0.11-0.06c0-0.1-0.03-0.19-0.1-0.25c-0.18-0.16-0.44-0.29-0.79-0.4
				c-0.35-0.1-0.7-0.16-1.06-0.16c-0.31,0-0.58,0.04-0.81,0.13c-0.34,0.12-0.51,0.3-0.51,0.53c0,0.16,0.08,0.26,0.25,0.33
				c0.16,0.06,0.48,0.12,0.95,0.15l0.75,0.06c0.65,0.05,1.15,0.18,1.49,0.38c0.19,0.11,0.34,0.26,0.47,0.45
				c0.15,0.24,0.23,0.5,0.23,0.8c0,0.54-0.24,0.96-0.73,1.28c-0.46,0.3-1.09,0.45-1.88,0.45c-0.8,0-1.57-0.17-2.31-0.51
				c-0.05-0.02-0.09-0.03-0.13-0.03c-0.06,0-0.12,0.04-0.17,0.11l-0.12-0.05l0.54-1.3l0.12,0.05c0,0.02,0,0.03,0,0.04
				c0,0.08,0.03,0.15,0.09,0.21c0.16,0.14,0.43,0.26,0.82,0.36c0.39,0.1,0.77,0.15,1.15,0.15c0.33,0,0.63-0.04,0.9-0.13
				c0.33-0.11,0.49-0.28,0.49-0.52c0-0.19-0.11-0.33-0.34-0.4c-0.15-0.05-0.42-0.09-0.82-0.13l-0.74-0.06
				c-0.4-0.03-0.71-0.07-0.92-0.12c-0.21-0.05-0.4-0.12-0.55-0.22c-0.2-0.13-0.36-0.3-0.47-0.52s-0.17-0.46-0.17-0.71
				c0-0.58,0.25-1.02,0.75-1.33c0.45-0.28,1.01-0.42,1.68-0.42c0.36,0,0.7,0.04,1.01,0.12s0.69,0.22,1.12,0.42
				c0.13,0.06,0.22,0.09,0.27,0.09c0.05,0,0.11-0.04,0.19-0.1L111.87,36.05z"/>
			<path class="st1" d="M116.1,35.46c0.84,0,1.54,0.21,2.1,0.64c0.67,0.52,1.01,1.24,1.01,2.16c0,0.87-0.33,1.56-1.01,2.08
				c-0.55,0.43-1.25,0.64-2.09,0.64s-1.54-0.21-2.09-0.64c-0.67-0.52-1.01-1.22-1.01-2.12c0-0.91,0.34-1.61,1.01-2.12
				C114.57,35.68,115.27,35.47,116.1,35.46z M116.1,36.46c-0.54,0-0.99,0.17-1.33,0.53c-0.32,0.33-0.48,0.74-0.48,1.23
				c0,0.49,0.16,0.9,0.48,1.23c0.34,0.35,0.79,0.53,1.34,0.53c0.54,0,0.99-0.18,1.33-0.53c0.32-0.32,0.48-0.73,0.48-1.21
				c0-0.52-0.16-0.94-0.48-1.26C117.09,36.64,116.65,36.47,116.1,36.46z"/>
			<path class="st1" d="M121.97,39.91h2.96c0.1,0,0.18-0.02,0.23-0.06c0.05-0.04,0.09-0.12,0.13-0.24h0.13v1.57h-0.13
				c-0.03-0.11-0.07-0.19-0.13-0.24s-0.13-0.07-0.23-0.07h-4.53v-0.13c0.11-0.03,0.19-0.07,0.23-0.12s0.07-0.13,0.07-0.23v-4.33
				c0-0.1-0.02-0.17-0.07-0.22c-0.04-0.05-0.12-0.09-0.24-0.13v-0.13h1.87v0.13c-0.11,0.03-0.19,0.07-0.24,0.13
				s-0.07,0.13-0.07,0.22V39.91z"/>
			<path class="st1" d="M131.89,36.06v2.81c0,0.64-0.13,1.11-0.38,1.41c-0.41,0.48-1.17,0.71-2.29,0.71c-0.75,0-1.36-0.12-1.82-0.34
				c-0.33-0.17-0.56-0.41-0.68-0.71c-0.11-0.28-0.17-0.64-0.17-1.06v-2.81c0-0.1-0.02-0.17-0.07-0.22
				c-0.04-0.05-0.12-0.09-0.24-0.13v-0.13h1.87v0.13c-0.11,0.03-0.19,0.07-0.24,0.13c-0.04,0.05-0.06,0.13-0.06,0.22v2.55
				c0,0.3,0.03,0.52,0.08,0.68c0.05,0.16,0.14,0.29,0.27,0.39c0.26,0.21,0.63,0.31,1.12,0.31c0.49,0,0.86-0.1,1.12-0.31
				c0.13-0.1,0.21-0.23,0.26-0.39c0.05-0.16,0.08-0.38,0.08-0.68v-2.55c0-0.1-0.02-0.17-0.06-0.22c-0.04-0.05-0.12-0.09-0.24-0.13
				v-0.13h1.76v0.13c-0.11,0.03-0.19,0.07-0.24,0.13C131.91,35.88,131.89,35.96,131.89,36.06z"/>
			<path class="st1" d="M136.32,36.53v3.85c0,0.1,0.02,0.17,0.07,0.22c0.04,0.05,0.12,0.1,0.24,0.13v0.13h-1.87v-0.13
				c0.11-0.03,0.19-0.07,0.23-0.12s0.07-0.13,0.07-0.23v-3.86h-1.56c-0.1,0-0.18,0.02-0.23,0.07s-0.09,0.12-0.13,0.24h-0.13v-1.57
				h0.13c0.03,0.11,0.07,0.19,0.12,0.23c0.05,0.04,0.13,0.07,0.23,0.07h4.39c0.1,0,0.18-0.02,0.23-0.07s0.09-0.12,0.13-0.24h0.13
				v1.57h-0.13c-0.03-0.11-0.07-0.19-0.13-0.24s-0.13-0.07-0.23-0.07H136.32z"/>
			<path class="st1" d="M140.86,36.06v4.33c0,0.1,0.02,0.17,0.07,0.22c0.04,0.05,0.12,0.1,0.24,0.13v0.13h-1.87v-0.13
				c0.11-0.03,0.19-0.07,0.23-0.12s0.07-0.13,0.07-0.23v-4.33c0-0.1-0.02-0.17-0.07-0.22c-0.04-0.05-0.12-0.09-0.24-0.13v-0.13h1.87
				v0.13c-0.11,0.03-0.19,0.07-0.24,0.13S140.86,35.96,140.86,36.06z"/>
			<path class="st1" d="M145.46,35.46c0.84,0,1.54,0.21,2.1,0.64c0.67,0.52,1.01,1.24,1.01,2.16c0,0.87-0.33,1.56-1.01,2.08
				c-0.55,0.43-1.25,0.64-2.09,0.64s-1.54-0.21-2.09-0.64c-0.67-0.52-1.01-1.22-1.01-2.12c0-0.91,0.34-1.61,1.01-2.12
				C143.93,35.68,144.62,35.47,145.46,35.46z M145.46,36.46c-0.54,0-0.99,0.17-1.33,0.53c-0.32,0.33-0.48,0.74-0.48,1.23
				c0,0.49,0.16,0.9,0.48,1.23c0.34,0.35,0.79,0.53,1.34,0.53c0.54,0,0.99-0.18,1.33-0.53c0.32-0.32,0.48-0.73,0.48-1.21
				c0-0.52-0.16-0.94-0.48-1.26C146.45,36.64,146.01,36.47,145.46,36.46z"/>
			<path class="st1" d="M151.21,37.38v3c0,0.1,0.02,0.17,0.07,0.23s0.12,0.1,0.23,0.13v0.13h-1.76v-0.13
				c0.11-0.03,0.19-0.07,0.23-0.12s0.07-0.13,0.07-0.23v-4.33c0-0.1-0.02-0.17-0.07-0.22c-0.04-0.05-0.12-0.09-0.24-0.13v-0.13h2.03
				v0.13c-0.14,0.03-0.21,0.1-0.21,0.18c0,0.08,0.05,0.17,0.15,0.27l2.84,2.82v-2.92c0-0.1-0.02-0.17-0.07-0.22
				s-0.12-0.09-0.24-0.13v-0.13h1.76v0.13c-0.11,0.03-0.19,0.07-0.24,0.13s-0.07,0.13-0.07,0.22v4.33c0,0.1,0.02,0.17,0.07,0.22
				c0.04,0.05,0.12,0.1,0.24,0.13v0.13h-1.89v-0.13c0.14-0.03,0.21-0.09,0.21-0.17c0-0.04-0.02-0.09-0.06-0.14s-0.12-0.14-0.26-0.28
				L151.21,37.38z"/>
			<path class="st1" d="M162.42,36.05l-0.64,1.24l-0.11-0.06c0-0.1-0.03-0.19-0.1-0.25c-0.18-0.16-0.44-0.29-0.79-0.4
				c-0.35-0.1-0.7-0.16-1.06-0.16c-0.31,0-0.58,0.04-0.81,0.13c-0.34,0.12-0.51,0.3-0.51,0.53c0,0.16,0.08,0.26,0.25,0.33
				c0.16,0.06,0.48,0.12,0.95,0.15l0.75,0.06c0.65,0.05,1.15,0.18,1.49,0.38c0.19,0.11,0.34,0.26,0.47,0.45
				c0.15,0.24,0.23,0.5,0.23,0.8c0,0.54-0.24,0.96-0.73,1.28c-0.46,0.3-1.09,0.45-1.88,0.45c-0.8,0-1.57-0.17-2.31-0.51
				c-0.05-0.02-0.09-0.03-0.13-0.03c-0.06,0-0.12,0.04-0.17,0.11l-0.12-0.05l0.54-1.3l0.12,0.05c0,0.02,0,0.03,0,0.04
				c0,0.08,0.03,0.15,0.09,0.21c0.16,0.14,0.43,0.26,0.82,0.36c0.39,0.1,0.77,0.15,1.15,0.15c0.33,0,0.63-0.04,0.9-0.13
				c0.33-0.11,0.49-0.28,0.49-0.52c0-0.19-0.11-0.33-0.34-0.4c-0.15-0.05-0.42-0.09-0.82-0.13l-0.74-0.06
				c-0.4-0.03-0.71-0.07-0.92-0.12c-0.21-0.05-0.4-0.12-0.55-0.22c-0.2-0.13-0.36-0.3-0.47-0.52s-0.17-0.46-0.17-0.71
				c0-0.58,0.25-1.02,0.75-1.33c0.45-0.28,1.01-0.42,1.68-0.42c0.36,0,0.7,0.04,1.01,0.12s0.69,0.22,1.12,0.42
				c0.13,0.06,0.22,0.09,0.27,0.09c0.05,0,0.11-0.04,0.19-0.1L162.42,36.05z"/>
		</g>
	</g>
	<g>
		<path class="st0" d="M66.6,19.26l-1.67,3.29l-0.29-0.16c0.01-0.07,0.01-0.12,0.01-0.16c0-0.23-0.2-0.48-0.59-0.75
			c-1.21-0.85-2.64-1.27-4.27-1.27c-0.72,0-1.36,0.09-1.91,0.27c-0.4,0.14-0.73,0.34-0.98,0.61c-0.25,0.27-0.37,0.57-0.37,0.89
			c0,0.53,0.32,0.88,0.95,1.08c0.33,0.1,1.03,0.2,2.11,0.31l1.61,0.16c0.95,0.1,1.73,0.24,2.32,0.42c0.59,0.18,1.11,0.43,1.57,0.75
			c0.46,0.33,0.83,0.77,1.1,1.32c0.27,0.55,0.4,1.13,0.4,1.75c0,0.98-0.32,1.86-0.95,2.62c-0.57,0.7-1.46,1.21-2.67,1.55
			c-0.9,0.25-1.86,0.38-2.89,0.38c-1.85,0-3.67-0.44-5.47-1.33c-0.38-0.18-0.61-0.27-0.68-0.27c-0.09,0-0.23,0.08-0.42,0.23
			l-0.3-0.15l1.51-3.43l0.3,0.14c0,0.06,0,0.11,0,0.13c0,0.31,0.15,0.59,0.44,0.85c0.44,0.4,1.13,0.74,2.05,1.02
			c0.93,0.29,1.81,0.43,2.64,0.43c0.91,0,1.68-0.15,2.32-0.46c0.35-0.17,0.64-0.4,0.85-0.68c0.21-0.28,0.32-0.58,0.32-0.88
			c0-0.46-0.25-0.79-0.75-0.99c-0.35-0.14-1.05-0.26-2.11-0.38l-1.57-0.16c-1.06-0.11-1.8-0.21-2.24-0.31
			c-0.44-0.1-0.87-0.26-1.31-0.48c-0.62-0.31-1.11-0.77-1.46-1.38c-0.32-0.55-0.48-1.19-0.48-1.91c0-1.18,0.41-2.16,1.22-2.93
			c1.06-1.02,2.66-1.53,4.78-1.53c0.89,0,1.72,0.09,2.49,0.27s1.73,0.52,2.88,1c0.39,0.16,0.64,0.24,0.73,0.24
			c0.14,0,0.31-0.08,0.5-0.24L66.6,19.26z"/>
		<path class="st0" d="M83.73,19.16v7.84c0,1.48-0.27,2.59-0.82,3.33c-0.98,1.32-3.01,1.99-6.08,1.99c-2.22,0-3.92-0.36-5.1-1.08
			c-0.69-0.42-1.17-0.98-1.43-1.7c-0.26-0.71-0.39-1.56-0.39-2.54v-7.84c0-0.21-0.05-0.37-0.14-0.48s-0.27-0.2-0.51-0.27v-0.33h4.35
			v0.33c-0.24,0.06-0.41,0.15-0.51,0.26c-0.1,0.11-0.15,0.27-0.15,0.49v6.98c0,0.81,0.04,1.4,0.13,1.79s0.26,0.71,0.5,0.97
			c0.65,0.7,1.77,1.04,3.35,1.04c1.59,0,2.71-0.35,3.36-1.04c0.24-0.26,0.4-0.58,0.49-0.97c0.09-0.39,0.13-0.98,0.13-1.79v-6.98
			c0-0.21-0.05-0.37-0.14-0.48s-0.27-0.2-0.51-0.27v-0.33h4.11v0.33c-0.25,0.07-0.42,0.16-0.51,0.27S83.73,18.94,83.73,19.16z"/>
		<path class="st0" d="M90.89,22.48v8.5c0,0.21,0.05,0.37,0.14,0.48c0.09,0.11,0.27,0.2,0.51,0.27v0.33h-4.1v-0.33
			c0.25-0.07,0.42-0.16,0.51-0.27c0.09-0.11,0.14-0.27,0.14-0.48V19.15c0-0.21-0.05-0.36-0.14-0.47c-0.1-0.11-0.27-0.2-0.51-0.27
			v-0.33h4.74v0.33c-0.29,0.08-0.44,0.23-0.44,0.47c0,0.16,0.1,0.34,0.29,0.54l7.7,8.02v-8.3c0-0.21-0.05-0.36-0.14-0.47
			c-0.1-0.11-0.27-0.2-0.51-0.27v-0.33h4.1v0.33c-0.25,0.07-0.42,0.16-0.51,0.27c-0.09,0.11-0.14,0.27-0.14,0.47v11.84
			c0,0.21,0.05,0.37,0.14,0.48c0.1,0.11,0.27,0.2,0.51,0.27v0.33h-4.4v-0.33c0.29-0.06,0.43-0.21,0.43-0.44
			c0-0.14-0.17-0.38-0.5-0.72L90.89,22.48z"/>
		<path class="st1" d="M110.23,26.36V31c0,0.21,0.05,0.36,0.15,0.48c0.1,0.11,0.27,0.2,0.51,0.26v0.33h-4.36v-0.33
			c0.25-0.07,0.42-0.16,0.51-0.27c0.09-0.11,0.14-0.27,0.14-0.47V19.16c0-0.21-0.05-0.37-0.14-0.48c-0.1-0.11-0.27-0.2-0.51-0.27
			v-0.33h8.73c1.06,0,1.91,0.06,2.53,0.18c0.62,0.12,1.17,0.34,1.63,0.65c0.54,0.36,0.94,0.84,1.21,1.44
			c0.25,0.59,0.38,1.22,0.38,1.89c0,2.28-1.26,3.62-3.79,4l2.71,3.86c0.48,0.68,0.83,1.11,1.05,1.31c0.22,0.19,0.49,0.3,0.81,0.32
			v0.33h-5.04v-0.33c0.35-0.05,0.52-0.18,0.52-0.37c0-0.12-0.16-0.42-0.48-0.89l-2.83-4.12H110.23z M110.23,24.05h4.7
			c0.69,0,1.19-0.02,1.47-0.06s0.55-0.13,0.79-0.26c0.52-0.28,0.78-0.79,0.78-1.52c0-0.73-0.26-1.24-0.78-1.52
			c-0.25-0.14-0.51-0.22-0.78-0.26c-0.28-0.04-0.77-0.06-1.48-0.06h-4.7V24.05z"/>
		<path class="st1" d="M124.95,30.99V19.15c0-0.21-0.05-0.36-0.14-0.47c-0.1-0.11-0.27-0.2-0.51-0.27v-0.33h4.36v0.33
			c-0.25,0.06-0.42,0.15-0.51,0.26c-0.1,0.11-0.14,0.27-0.14,0.48v11.84c0,0.21,0.05,0.37,0.15,0.49c0.1,0.11,0.27,0.2,0.51,0.26
			v0.33h-4.36v-0.33c0.25-0.07,0.42-0.16,0.51-0.27C124.9,31.36,124.95,31.2,124.95,30.99z"/>
		<path class="st1" d="M144.97,19.26l-1.67,3.29l-0.29-0.16c0.01-0.07,0.01-0.12,0.01-0.16c0-0.23-0.2-0.48-0.59-0.75
			c-1.21-0.85-2.64-1.27-4.27-1.27c-0.72,0-1.36,0.09-1.91,0.27c-0.4,0.14-0.73,0.34-0.98,0.61c-0.25,0.27-0.37,0.57-0.37,0.89
			c0,0.53,0.32,0.88,0.95,1.08c0.33,0.1,1.03,0.2,2.11,0.31l1.61,0.16c0.95,0.1,1.73,0.24,2.32,0.42c0.59,0.18,1.11,0.43,1.57,0.75
			c0.46,0.33,0.83,0.77,1.1,1.32c0.27,0.55,0.4,1.13,0.4,1.75c0,0.98-0.32,1.86-0.95,2.62c-0.57,0.7-1.46,1.21-2.67,1.55
			c-0.9,0.25-1.86,0.38-2.89,0.38c-1.85,0-3.67-0.44-5.47-1.33c-0.38-0.18-0.61-0.27-0.68-0.27c-0.09,0-0.23,0.08-0.42,0.23
			l-0.3-0.15l1.51-3.43l0.3,0.14c0,0.06,0,0.11,0,0.13c0,0.31,0.15,0.59,0.44,0.85c0.44,0.4,1.13,0.74,2.05,1.02
			c0.93,0.29,1.81,0.43,2.64,0.43c0.91,0,1.68-0.15,2.32-0.46c0.35-0.17,0.64-0.4,0.85-0.68c0.21-0.28,0.32-0.58,0.32-0.88
			c0-0.46-0.25-0.79-0.75-0.99c-0.35-0.14-1.05-0.26-2.11-0.38l-1.57-0.16c-1.06-0.11-1.8-0.21-2.24-0.31
			c-0.44-0.1-0.87-0.26-1.31-0.48c-0.62-0.31-1.11-0.77-1.46-1.38c-0.32-0.55-0.48-1.19-0.48-1.91c0-1.18,0.41-2.16,1.22-2.93
			c1.06-1.02,2.66-1.53,4.78-1.53c0.89,0,1.72,0.09,2.49,0.27s1.73,0.52,2.88,1c0.39,0.16,0.64,0.24,0.73,0.24
			c0.14,0,0.31-0.08,0.5-0.24L144.97,19.26z"/>
		<path class="st1" d="M151.61,25.93v3.83h8.97c0.2,0,0.36-0.05,0.47-0.14c0.11-0.1,0.2-0.27,0.27-0.51h0.33v3.62h-0.33
			c-0.07-0.25-0.16-0.42-0.27-0.51c-0.11-0.1-0.27-0.14-0.47-0.14h-12.68v-0.33c0.25-0.07,0.42-0.16,0.51-0.27
			c0.09-0.11,0.14-0.27,0.14-0.48V19.16c0-0.21-0.05-0.37-0.14-0.48c-0.1-0.11-0.27-0.2-0.51-0.27v-0.33h12.43
			c0.2,0,0.36-0.05,0.47-0.15c0.11-0.1,0.2-0.27,0.27-0.51h0.33v3.62h-0.33c-0.07-0.24-0.16-0.41-0.27-0.51
			c-0.11-0.1-0.27-0.15-0.47-0.15h-8.73v3.32h5.66c0.2,0,0.36-0.05,0.47-0.14s0.2-0.27,0.27-0.51h0.33v3.54h-0.33
			c-0.07-0.24-0.16-0.41-0.27-0.51c-0.11-0.1-0.27-0.15-0.47-0.15H151.61z"/>
	</g>
</g>
</svg>
